<svg width="1200" height="630" xmlns="http://www.w3.org/2000/svg">
  <!-- Background -->
  <rect width="1200" height="630" fill="#ffffff"/>
  
  <!-- Background Checkbox Pattern (more visible, wallpaper style) -->
  <defs>
    <g id="checkbox-checked">
      <rect x="0" y="0" width="24" height="24" rx="4" fill="none" stroke="#d0d0d0" stroke-width="1.5"/>
      <polyline points="6,12 10,16 18,8" stroke="#d0d0d0" stroke-width="1.5" stroke-linecap="round" stroke-linejoin="round" fill="none"/>
    </g>
    <g id="checkbox-empty">
      <rect x="0" y="0" width="24" height="24" rx="4" fill="none" stroke="#d0d0d0" stroke-width="1.5"/>
    </g>
  </defs>
  
  <g opacity="0.45">
    <!-- Row 1 -->
    <use href="#checkbox-checked" x="80" y="60"/>
    <use href="#checkbox-empty" x="200" y="60"/>
    <use href="#checkbox-checked" x="320" y="60"/>
    <use href="#checkbox-empty" x="880" y="60"/>
    <use href="#checkbox-checked" x="1000" y="60"/>
    <use href="#checkbox-empty" x="1100" y="60"/>
    
    <!-- Row 2 -->
    <use href="#checkbox-empty" x="60" y="160"/>
    <use href="#checkbox-checked" x="180" y="160"/>
    <use href="#checkbox-checked" x="1020" y="160"/>
    <use href="#checkbox-empty" x="1120" y="160"/>
    
    <!-- Row 3 (middle) -->
    <use href="#checkbox-checked" x="40" y="280"/>
    <use href="#checkbox-empty" x="140" y="300"/>
    <use href="#checkbox-empty" x="1040" y="290"/>
    <use href="#checkbox-checked" x="1140" y="310"/>
    
    <!-- Row 4 -->
    <use href="#checkbox-empty" x="70" y="420"/>
    <use href="#checkbox-checked" x="190" y="430"/>
    <use href="#checkbox-checked" x="1010" y="420"/>
    <use href="#checkbox-empty" x="1110" y="440"/>
    
    <!-- Row 5 (bottom) -->
    <use href="#checkbox-checked" x="90" y="530"/>
    <use href="#checkbox-empty" x="210" y="540"/>
    <use href="#checkbox-checked" x="330" y="550"/>
    <use href="#checkbox-empty" x="870" y="540"/>
    <use href="#checkbox-checked" x="990" y="530"/>
    <use href="#checkbox-empty" x="1090" y="550"/>
  </g>
  
  <!-- Bookmark Icon (5% smaller) -->
  <g transform="translate(535, 120)">
    <path d="M28.5 17.1v102.6l39.9-28.5 39.9 28.5V17.1H28.5z" fill="#BF3143" stroke="#BF3143" stroke-width="2"/>
  </g>
  
  <!-- Title (adjusted for 120px space) -->
  <text x="600" y="343" font-family="-apple-system, BlinkMacSystemFont, 'Segoe UI', Roboto, sans-serif" font-size="72" font-weight="800" fill="#333333" text-anchor="middle">
    Tiny Wins
  </text>
  
  <!-- Tagline -->
  <text x="600" y="413" font-family="-apple-system, BlinkMacSystemFont, 'Segoe UI', Roboto, sans-serif" font-size="36" font-weight="500" fill="#BF3143" text-anchor="middle">
    Small steps. Big impact.
  </text>
  
  <!-- Subtitle -->
  <text x="600" y="483" font-family="-apple-system, BlinkMacSystemFont, 'Segoe UI', Roboto, sans-serif" font-size="24" font-weight="400" fill="#666666" text-anchor="middle">
    Your daily checklist for building better habits
  </text>
</svg>
